<svg xmlns="http://www.w3.org/2000/svg" xmlns:xlink="http://www.w3.org/1999/xlink" width="500" zoomAndPan="magnify" viewBox="0 0 375 374.999991" height="500" preserveAspectRatio="xMidYMid meet" version="1.0"><defs><clipPath id="966609bf6d"><path d="M 17.25 0 L 357.75 0 C 362.324219 0 366.710938 1.816406 369.949219 5.050781 C 373.183594 8.289062 375 12.675781 375 17.25 L 375 357.75 C 375 362.324219 373.183594 366.710938 369.949219 369.949219 C 366.710938 373.183594 362.324219 375 357.75 375 L 17.25 375 C 12.675781 375 8.289062 373.183594 5.050781 369.949219 C 1.816406 366.710938 0 362.324219 0 357.75 L 0 17.25 C 0 7.722656 7.722656 0 17.25 0 " clip-rule="nonzero"/></clipPath><clipPath id="ac395d8888"><path d="M 34 77.253906 L 341 77.253906 L 341 297.753906 L 34 297.753906 Z M 34 77.253906 " clip-rule="nonzero"/></clipPath></defs><rect x="-37.5" width="450" fill="#ffffff" y="-37.499999" height="449.999989" fill-opacity="1"/><rect x="-37.5" width="450" fill="#ffffff" y="-37.499999" height="449.999989" fill-opacity="1"/><rect x="-37.5" width="450" fill="#ffffff" y="-37.499999" height="449.999989" fill-opacity="1"/><g clip-path="url(#966609bf6d)"><rect x="-37.5" width="450" fill="#ffc100" y="-37.499999" height="449.999989" fill-opacity="1"/></g><path fill="#e4e4e3" d="M 140.320312 209.433594 C 145.785156 212.273438 149.90625 217.53125 151.011719 224.066406 C 152.890625 235.144531 145.425781 245.644531 134.34375 247.519531 C 123.257812 249.390625 112.753906 241.933594 110.878906 230.855469 C 109.039062 220 116.1875 209.714844 126.914062 207.546875 C 126.695312 207.578125 126.480469 207.585938 126.261719 207.625 C 113.015625 209.863281 104.09375 222.414062 106.332031 235.652344 C 108.578125 248.890625 121.132812 257.808594 134.378906 255.570312 C 147.628906 253.328125 156.550781 240.777344 154.308594 227.539062 C 152.902344 219.246094 147.453125 212.652344 140.320312 209.433594 Z M 256.007812 193.917969 C 256.574219 193.820312 256.953125 193.285156 256.859375 192.71875 C 256.761719 192.152344 256.226562 191.773438 255.660156 191.871094 C 255.09375 191.964844 254.714844 192.5 254.808594 193.066406 C 254.90625 193.632812 255.441406 194.011719 256.007812 193.917969 Z M 263.019531 189.121094 C 263.746094 189 264.234375 188.3125 264.113281 187.585938 C 263.988281 186.855469 263.296875 186.367188 262.574219 186.492188 C 261.847656 186.613281 261.355469 187.304688 261.480469 188.03125 C 261.601562 188.753906 262.289062 189.242188 263.019531 189.121094 Z M 263.675781 233.703125 C 250.429688 235.945312 237.871094 227.027344 235.628906 213.789062 C 233.507812 201.238281 241.414062 189.328125 253.523438 186.207031 C 243.574219 188.945312 237.125 198.824219 238.886719 209.207031 C 240.761719 220.285156 251.265625 227.742188 262.351562 225.871094 C 273.433594 223.996094 280.898438 213.496094 279.019531 202.417969 C 277.261719 192.035156 267.917969 184.828125 257.628906 185.511719 C 270.089844 184.476562 281.480469 193.125 283.605469 205.675781 C 285.84375 218.910156 276.921875 231.460938 263.675781 233.703125 " fill-opacity="1" fill-rule="nonzero"/><g clip-path="url(#ac395d8888)"><path fill="#100f0d" d="M 262.574219 186.492188 C 263.296875 186.367188 263.988281 186.855469 264.113281 187.585938 C 264.234375 188.3125 263.746094 189 263.019531 189.121094 C 262.289062 189.242188 261.601562 188.753906 261.480469 188.03125 C 261.355469 187.304688 261.847656 186.613281 262.574219 186.492188 Z M 263.675781 233.703125 C 250.429688 235.945312 237.871094 227.027344 235.628906 213.789062 C 233.507812 201.238281 241.414062 189.328125 253.523438 186.207031 C 243.574219 188.945312 237.125 198.824219 238.886719 209.207031 C 240.761719 220.285156 251.265625 227.742188 262.351562 225.871094 C 273.433594 223.996094 280.898438 213.496094 279.019531 202.417969 C 277.261719 192.035156 267.917969 184.828125 257.628906 185.511719 C 270.089844 184.476562 281.480469 193.125 283.605469 205.675781 C 285.84375 218.910156 276.921875 231.460938 263.675781 233.703125 Z M 255.660156 191.871094 C 256.226562 191.773438 256.761719 192.152344 256.859375 192.71875 C 256.953125 193.285156 256.574219 193.820312 256.007812 193.917969 C 255.441406 194.011719 254.90625 193.632812 254.808594 193.066406 C 254.714844 192.5 255.09375 191.964844 255.660156 191.871094 Z M 134.378906 255.570312 C 121.132812 257.808594 108.578125 248.890625 106.332031 235.652344 C 104.09375 222.414062 113.015625 209.863281 126.261719 207.625 C 126.480469 207.585938 126.695312 207.578125 126.914062 207.546875 C 116.1875 209.714844 109.039062 220 110.878906 230.855469 C 112.753906 241.933594 123.257812 249.390625 134.34375 247.519531 C 145.425781 245.644531 152.890625 235.144531 151.011719 224.066406 C 149.90625 217.53125 145.785156 212.273438 140.320312 209.433594 C 147.453125 212.652344 152.902344 219.246094 154.308594 227.539062 C 156.550781 240.777344 147.628906 253.328125 134.378906 255.570312 Z M 127.832031 214.394531 C 128.394531 214.296875 128.929688 214.675781 129.027344 215.242188 C 129.121094 215.808594 128.742188 216.34375 128.175781 216.4375 C 127.609375 216.535156 127.074219 216.152344 126.980469 215.589844 C 126.882812 215.023438 127.265625 214.488281 127.832031 214.394531 Z M 135.1875 211.644531 C 134.460938 211.765625 133.773438 211.277344 133.652344 210.550781 C 133.527344 209.824219 134.015625 209.136719 134.742188 209.011719 C 135.46875 208.890625 136.160156 209.378906 136.28125 210.105469 C 136.40625 210.832031 135.914062 211.523438 135.1875 211.644531 Z M 326.988281 192.378906 L 320.828125 182.835938 C 319.171875 170.167969 319.300781 157.3125 321.46875 144.726562 C 324.238281 128.628906 324.917969 101.722656 307 77.253906 C 307 77.253906 293.9375 80.308594 279.328125 102.402344 C 264.71875 124.5 236.808594 137.570312 236.808594 137.570312 C 236.808594 137.570312 196.582031 141.207031 162.640625 145.835938 C 143.125 148.496094 125.683594 151.488281 119.171875 154.304688 C 101.332031 162.023438 71.097656 116.191406 46.230469 111.371094 C 46.230469 111.371094 38.128906 116.085938 36.769531 176.523438 C 35.714844 223.3125 48.761719 231.855469 45.210938 238.679688 C 29.871094 268.148438 33.558594 282.207031 39.769531 297.785156 L 162.640625 268.507812 L 340.359375 226.164062 C 340.359375 226.164062 345.296875 208.824219 326.988281 192.378906 " fill-opacity="1" fill-rule="nonzero"/></g></svg>