<svg xmlns="http://www.w3.org/2000/svg" xmlns:xlink="http://www.w3.org/1999/xlink" width="500" zoomAndPan="magnify" viewBox="0 0 375 374.999991" height="500" preserveAspectRatio="xMidYMid meet" version="1.0"><defs><clipPath id="b9df72c83f"><path d="M 187.5 0 C 83.945312 0 0 83.945312 0 187.5 C 0 291.054688 83.945312 375 187.5 375 C 291.054688 375 375 291.054688 375 187.5 C 375 83.945312 291.054688 0 187.5 0 " clip-rule="nonzero"/></clipPath><clipPath id="757f070c24"><path d="M 38 79.96875 L 337 79.96875 L 337 295.21875 L 38 295.21875 Z M 38 79.96875 " clip-rule="nonzero"/></clipPath></defs><rect x="-37.5" width="450" fill="#ffffff" y="-37.499999" height="449.999989" fill-opacity="1"/><rect x="-37.5" width="450" fill="#ffffff" y="-37.499999" height="449.999989" fill-opacity="1"/><rect x="-37.5" width="450" fill="#ffffff" y="-37.499999" height="449.999989" fill-opacity="1"/><g clip-path="url(#b9df72c83f)"><rect x="-37.5" width="450" fill="#ffc100" y="-37.499999" height="449.999989" fill-opacity="1"/></g><path fill="#e4e4e3" d="M 141.320312 209 C 146.640625 211.773438 150.65625 216.90625 151.734375 223.289062 C 153.5625 234.101562 146.292969 244.351562 135.496094 246.183594 C 124.703125 248.011719 114.472656 240.730469 112.644531 229.917969 C 110.855469 219.316406 117.816406 209.277344 128.261719 207.164062 C 128.050781 207.191406 127.839844 207.199219 127.628906 207.238281 C 114.726562 209.425781 106.039062 221.675781 108.222656 234.597656 C 110.40625 247.523438 122.632812 256.226562 135.535156 254.042969 C 148.4375 251.851562 157.125 239.601562 154.941406 226.679688 C 153.574219 218.582031 148.265625 212.148438 141.320312 209 Z M 253.984375 193.855469 C 254.535156 193.761719 254.902344 193.238281 254.8125 192.6875 C 254.71875 192.136719 254.199219 191.765625 253.644531 191.859375 C 253.09375 191.953125 252.722656 192.476562 252.816406 193.027344 C 252.914062 193.578125 253.433594 193.949219 253.984375 193.855469 Z M 260.8125 189.175781 C 261.519531 189.054688 261.996094 188.382812 261.878906 187.675781 C 261.757812 186.964844 261.085938 186.488281 260.378906 186.609375 C 259.671875 186.726562 259.191406 187.398438 259.3125 188.109375 C 259.433594 188.816406 260.101562 189.292969 260.8125 189.175781 Z M 261.449219 232.695312 C 248.550781 234.882812 236.320312 226.179688 234.136719 213.253906 C 232.070312 201.003906 239.769531 189.375 251.5625 186.332031 C 241.878906 189.003906 235.597656 198.644531 237.308594 208.78125 C 239.132812 219.597656 249.367188 226.878906 260.160156 225.046875 C 270.953125 223.21875 278.222656 212.96875 276.394531 202.15625 C 274.683594 192.019531 265.585938 184.984375 255.5625 185.652344 C 267.695312 184.644531 278.789062 193.082031 280.859375 205.332031 C 283.042969 218.253906 274.351562 230.507812 261.449219 232.695312 " fill-opacity="1" fill-rule="nonzero"/><g clip-path="url(#757f070c24)"><path fill="#100f0d" d="M 260.378906 186.609375 C 261.085938 186.488281 261.757812 186.964844 261.878906 187.675781 C 261.996094 188.382812 261.519531 189.054688 260.8125 189.175781 C 260.101562 189.292969 259.433594 188.816406 259.3125 188.109375 C 259.191406 187.398438 259.671875 186.726562 260.378906 186.609375 Z M 261.449219 232.695312 C 248.550781 234.882812 236.320312 226.179688 234.136719 213.253906 C 232.070312 201.003906 239.769531 189.375 251.5625 186.332031 C 241.878906 189.003906 235.597656 198.644531 237.308594 208.78125 C 239.132812 219.597656 249.367188 226.878906 260.160156 225.046875 C 270.953125 223.21875 278.222656 212.96875 276.394531 202.15625 C 274.683594 192.019531 265.585938 184.984375 255.5625 185.652344 C 267.695312 184.644531 278.789062 193.082031 280.859375 205.332031 C 283.042969 218.253906 274.351562 230.507812 261.449219 232.695312 Z M 253.644531 191.859375 C 254.199219 191.765625 254.71875 192.136719 254.8125 192.6875 C 254.902344 193.238281 254.535156 193.761719 253.984375 193.855469 C 253.433594 193.949219 252.914062 193.578125 252.816406 193.027344 C 252.722656 192.476562 253.09375 191.953125 253.644531 191.859375 Z M 135.535156 254.042969 C 122.632812 256.226562 110.40625 247.523438 108.222656 234.597656 C 106.039062 221.675781 114.726562 209.425781 127.628906 207.238281 C 127.839844 207.199219 128.050781 207.191406 128.261719 207.164062 C 117.816406 209.277344 110.855469 219.316406 112.644531 229.917969 C 114.472656 240.730469 124.703125 248.011719 135.496094 246.183594 C 146.292969 244.351562 153.5625 234.101562 151.734375 223.289062 C 150.65625 216.90625 146.640625 211.773438 141.320312 209 C 148.265625 212.148438 153.574219 218.582031 154.941406 226.679688 C 157.125 239.601562 148.4375 251.851562 135.535156 254.042969 Z M 129.15625 213.84375 C 129.707031 213.75 130.226562 214.121094 130.320312 214.675781 C 130.414062 215.226562 130.042969 215.75 129.492188 215.84375 C 128.941406 215.9375 128.421875 215.5625 128.328125 215.011719 C 128.234375 214.460938 128.605469 213.9375 129.15625 213.84375 Z M 136.320312 211.160156 C 135.613281 211.28125 134.941406 210.804688 134.824219 210.09375 C 134.703125 209.386719 135.179688 208.710938 135.886719 208.589844 C 136.59375 208.472656 137.269531 208.953125 137.386719 209.660156 C 137.507812 210.371094 137.027344 211.042969 136.320312 211.160156 Z M 323.109375 192.355469 L 317.109375 183.039062 C 315.496094 170.675781 315.625 158.125 317.734375 145.835938 C 320.433594 130.121094 321.09375 103.859375 303.644531 79.96875 C 303.644531 79.96875 290.921875 82.953125 276.695312 104.519531 C 262.46875 126.09375 235.289062 138.851562 235.289062 138.851562 C 235.289062 138.851562 196.113281 142.398438 163.058594 146.917969 C 144.050781 149.519531 127.066406 152.4375 120.726562 155.1875 C 103.351562 162.722656 73.90625 117.980469 49.6875 113.277344 C 49.6875 113.277344 41.800781 117.878906 40.472656 176.875 C 39.449219 222.550781 52.152344 230.890625 48.695312 237.550781 C 33.753906 266.320312 37.347656 280.042969 43.394531 295.25 L 163.058594 266.671875 L 336.128906 225.335938 C 336.128906 225.335938 340.941406 208.40625 323.109375 192.355469 " fill-opacity="1" fill-rule="nonzero"/></g></svg>